<mxfile host="app.diagrams.net" modified="2023-01-24T12:51:18.956Z" agent="5.0 (Windows NT 10.0; Win64; x64) AppleWebKit/537.36 (KHTML, like Gecko) Chrome/109.0.0.0 Safari/537.36" etag="B2ci3d3958ZAVIO_gCYH" version="20.8.10" type="github">
  <diagram name="Page-1" id="mVnA4_8c0CKmfYZO2tjX">
    <mxGraphModel dx="1050" dy="590" grid="1" gridSize="10" guides="1" tooltips="1" connect="1" arrows="1" fold="1" page="1" pageScale="1" pageWidth="850" pageHeight="1100" math="0" shadow="0">
      <root>
        <mxCell id="0" />
        <mxCell id="1" parent="0" />
        <mxCell id="D9bvN3J_-7FyO0SO-2hR-6" style="edgeStyle=orthogonalEdgeStyle;rounded=0;orthogonalLoop=1;jettySize=auto;html=1;exitX=0.5;exitY=1;exitDx=0;exitDy=0;entryX=0.5;entryY=0;entryDx=0;entryDy=0;" edge="1" parent="1" source="D9bvN3J_-7FyO0SO-2hR-1" target="D9bvN3J_-7FyO0SO-2hR-3">
          <mxGeometry relative="1" as="geometry" />
        </mxCell>
        <mxCell id="D9bvN3J_-7FyO0SO-2hR-1" value="Start" style="ellipse;whiteSpace=wrap;html=1;" vertex="1" parent="1">
          <mxGeometry x="350" y="40" width="120" height="80" as="geometry" />
        </mxCell>
        <mxCell id="D9bvN3J_-7FyO0SO-2hR-2" value="End" style="ellipse;whiteSpace=wrap;html=1;" vertex="1" parent="1">
          <mxGeometry x="345" y="610" width="120" height="80" as="geometry" />
        </mxCell>
        <mxCell id="D9bvN3J_-7FyO0SO-2hR-7" style="edgeStyle=orthogonalEdgeStyle;rounded=0;orthogonalLoop=1;jettySize=auto;html=1;exitX=0.5;exitY=1;exitDx=0;exitDy=0;entryX=0.5;entryY=0;entryDx=0;entryDy=0;" edge="1" parent="1" source="D9bvN3J_-7FyO0SO-2hR-3" target="D9bvN3J_-7FyO0SO-2hR-4">
          <mxGeometry relative="1" as="geometry" />
        </mxCell>
        <mxCell id="D9bvN3J_-7FyO0SO-2hR-3" value="declare a, b, c" style="shape=hexagon;perimeter=hexagonPerimeter2;whiteSpace=wrap;html=1;fixedSize=1;" vertex="1" parent="1">
          <mxGeometry x="285" y="140" width="250" height="40" as="geometry" />
        </mxCell>
        <mxCell id="D9bvN3J_-7FyO0SO-2hR-8" style="edgeStyle=orthogonalEdgeStyle;rounded=0;orthogonalLoop=1;jettySize=auto;html=1;exitX=0.5;exitY=1;exitDx=0;exitDy=0;entryX=0.5;entryY=0;entryDx=0;entryDy=0;" edge="1" parent="1" source="D9bvN3J_-7FyO0SO-2hR-4" target="D9bvN3J_-7FyO0SO-2hR-5">
          <mxGeometry relative="1" as="geometry" />
        </mxCell>
        <mxCell id="D9bvN3J_-7FyO0SO-2hR-4" value="INPUT&lt;br&gt;get value of a, get value of b, get value c" style="shape=parallelogram;perimeter=parallelogramPerimeter;whiteSpace=wrap;html=1;fixedSize=1;" vertex="1" parent="1">
          <mxGeometry x="270" y="200" width="270" height="50" as="geometry" />
        </mxCell>
        <mxCell id="D9bvN3J_-7FyO0SO-2hR-11" style="edgeStyle=orthogonalEdgeStyle;rounded=0;orthogonalLoop=1;jettySize=auto;html=1;exitX=0;exitY=0.5;exitDx=0;exitDy=0;entryX=0.5;entryY=0;entryDx=0;entryDy=0;" edge="1" parent="1" source="D9bvN3J_-7FyO0SO-2hR-5" target="D9bvN3J_-7FyO0SO-2hR-9">
          <mxGeometry relative="1" as="geometry" />
        </mxCell>
        <mxCell id="D9bvN3J_-7FyO0SO-2hR-14" value="FALSE" style="edgeLabel;html=1;align=center;verticalAlign=middle;resizable=0;points=[];" vertex="1" connectable="0" parent="D9bvN3J_-7FyO0SO-2hR-11">
          <mxGeometry x="-0.3915" y="1" relative="1" as="geometry">
            <mxPoint as="offset" />
          </mxGeometry>
        </mxCell>
        <mxCell id="D9bvN3J_-7FyO0SO-2hR-12" style="edgeStyle=orthogonalEdgeStyle;rounded=0;orthogonalLoop=1;jettySize=auto;html=1;exitX=1;exitY=0.5;exitDx=0;exitDy=0;entryX=0.5;entryY=0;entryDx=0;entryDy=0;" edge="1" parent="1" source="D9bvN3J_-7FyO0SO-2hR-5" target="D9bvN3J_-7FyO0SO-2hR-10">
          <mxGeometry relative="1" as="geometry" />
        </mxCell>
        <mxCell id="D9bvN3J_-7FyO0SO-2hR-13" value="TRUE" style="edgeLabel;html=1;align=center;verticalAlign=middle;resizable=0;points=[];" vertex="1" connectable="0" parent="D9bvN3J_-7FyO0SO-2hR-12">
          <mxGeometry x="-0.415" relative="1" as="geometry">
            <mxPoint as="offset" />
          </mxGeometry>
        </mxCell>
        <mxCell id="D9bvN3J_-7FyO0SO-2hR-5" value="a &amp;gt; b" style="rhombus;whiteSpace=wrap;html=1;" vertex="1" parent="1">
          <mxGeometry x="370" y="280" width="80" height="80" as="geometry" />
        </mxCell>
        <mxCell id="D9bvN3J_-7FyO0SO-2hR-23" style="edgeStyle=orthogonalEdgeStyle;rounded=0;orthogonalLoop=1;jettySize=auto;html=1;exitX=0;exitY=0.5;exitDx=0;exitDy=0;" edge="1" parent="1" source="D9bvN3J_-7FyO0SO-2hR-9" target="D9bvN3J_-7FyO0SO-2hR-22">
          <mxGeometry relative="1" as="geometry" />
        </mxCell>
        <mxCell id="D9bvN3J_-7FyO0SO-2hR-25" value="FALSE" style="edgeLabel;html=1;align=center;verticalAlign=middle;resizable=0;points=[];" vertex="1" connectable="0" parent="D9bvN3J_-7FyO0SO-2hR-23">
          <mxGeometry x="-0.3686" relative="1" as="geometry">
            <mxPoint as="offset" />
          </mxGeometry>
        </mxCell>
        <mxCell id="D9bvN3J_-7FyO0SO-2hR-24" style="edgeStyle=orthogonalEdgeStyle;rounded=0;orthogonalLoop=1;jettySize=auto;html=1;exitX=1;exitY=0.5;exitDx=0;exitDy=0;entryX=0.57;entryY=-0.016;entryDx=0;entryDy=0;entryPerimeter=0;" edge="1" parent="1" source="D9bvN3J_-7FyO0SO-2hR-9" target="D9bvN3J_-7FyO0SO-2hR-21">
          <mxGeometry relative="1" as="geometry" />
        </mxCell>
        <mxCell id="D9bvN3J_-7FyO0SO-2hR-26" value="TRUE" style="edgeLabel;html=1;align=center;verticalAlign=middle;resizable=0;points=[];" vertex="1" connectable="0" parent="D9bvN3J_-7FyO0SO-2hR-24">
          <mxGeometry x="-0.3576" y="1" relative="1" as="geometry">
            <mxPoint as="offset" />
          </mxGeometry>
        </mxCell>
        <mxCell id="D9bvN3J_-7FyO0SO-2hR-9" value="b &amp;gt; c" style="rhombus;whiteSpace=wrap;html=1;" vertex="1" parent="1">
          <mxGeometry x="205" y="360" width="80" height="80" as="geometry" />
        </mxCell>
        <mxCell id="D9bvN3J_-7FyO0SO-2hR-17" style="edgeStyle=orthogonalEdgeStyle;rounded=0;orthogonalLoop=1;jettySize=auto;html=1;exitX=1;exitY=0.5;exitDx=0;exitDy=0;" edge="1" parent="1" source="D9bvN3J_-7FyO0SO-2hR-10" target="D9bvN3J_-7FyO0SO-2hR-15">
          <mxGeometry relative="1" as="geometry" />
        </mxCell>
        <mxCell id="D9bvN3J_-7FyO0SO-2hR-18" value="TRUE" style="edgeLabel;html=1;align=center;verticalAlign=middle;resizable=0;points=[];" vertex="1" connectable="0" parent="D9bvN3J_-7FyO0SO-2hR-17">
          <mxGeometry x="-0.4171" y="1" relative="1" as="geometry">
            <mxPoint as="offset" />
          </mxGeometry>
        </mxCell>
        <mxCell id="D9bvN3J_-7FyO0SO-2hR-19" style="edgeStyle=orthogonalEdgeStyle;rounded=0;orthogonalLoop=1;jettySize=auto;html=1;exitX=0;exitY=0.5;exitDx=0;exitDy=0;" edge="1" parent="1" source="D9bvN3J_-7FyO0SO-2hR-10" target="D9bvN3J_-7FyO0SO-2hR-16">
          <mxGeometry relative="1" as="geometry" />
        </mxCell>
        <mxCell id="D9bvN3J_-7FyO0SO-2hR-20" value="FALSE" style="edgeLabel;html=1;align=center;verticalAlign=middle;resizable=0;points=[];" vertex="1" connectable="0" parent="D9bvN3J_-7FyO0SO-2hR-19">
          <mxGeometry x="-0.4368" y="3" relative="1" as="geometry">
            <mxPoint as="offset" />
          </mxGeometry>
        </mxCell>
        <mxCell id="D9bvN3J_-7FyO0SO-2hR-10" value="a &amp;gt; c" style="rhombus;whiteSpace=wrap;html=1;" vertex="1" parent="1">
          <mxGeometry x="530" y="360" width="80" height="80" as="geometry" />
        </mxCell>
        <mxCell id="D9bvN3J_-7FyO0SO-2hR-30" style="edgeStyle=orthogonalEdgeStyle;rounded=0;orthogonalLoop=1;jettySize=auto;html=1;exitX=0.5;exitY=1;exitDx=0;exitDy=0;" edge="1" parent="1" source="D9bvN3J_-7FyO0SO-2hR-15">
          <mxGeometry relative="1" as="geometry">
            <mxPoint x="400" y="610" as="targetPoint" />
          </mxGeometry>
        </mxCell>
        <mxCell id="D9bvN3J_-7FyO0SO-2hR-15" value="OUTPUT a" style="shape=parallelogram;perimeter=parallelogramPerimeter;whiteSpace=wrap;html=1;fixedSize=1;" vertex="1" parent="1">
          <mxGeometry x="610" y="480" width="120" height="50" as="geometry" />
        </mxCell>
        <mxCell id="D9bvN3J_-7FyO0SO-2hR-29" style="edgeStyle=orthogonalEdgeStyle;rounded=0;orthogonalLoop=1;jettySize=auto;html=1;exitX=0.5;exitY=1;exitDx=0;exitDy=0;" edge="1" parent="1" source="D9bvN3J_-7FyO0SO-2hR-16">
          <mxGeometry relative="1" as="geometry">
            <mxPoint x="410" y="610" as="targetPoint" />
          </mxGeometry>
        </mxCell>
        <mxCell id="D9bvN3J_-7FyO0SO-2hR-16" value="OUTPUT c" style="shape=parallelogram;perimeter=parallelogramPerimeter;whiteSpace=wrap;html=1;fixedSize=1;" vertex="1" parent="1">
          <mxGeometry x="425" y="480" width="120" height="50" as="geometry" />
        </mxCell>
        <mxCell id="D9bvN3J_-7FyO0SO-2hR-28" style="edgeStyle=orthogonalEdgeStyle;rounded=0;orthogonalLoop=1;jettySize=auto;html=1;exitX=0.5;exitY=1;exitDx=0;exitDy=0;" edge="1" parent="1" source="D9bvN3J_-7FyO0SO-2hR-21">
          <mxGeometry relative="1" as="geometry">
            <mxPoint x="410" y="610" as="targetPoint" />
          </mxGeometry>
        </mxCell>
        <mxCell id="D9bvN3J_-7FyO0SO-2hR-21" value="OUTPUT b" style="shape=parallelogram;perimeter=parallelogramPerimeter;whiteSpace=wrap;html=1;fixedSize=1;" vertex="1" parent="1">
          <mxGeometry x="280" y="480" width="120" height="50" as="geometry" />
        </mxCell>
        <mxCell id="D9bvN3J_-7FyO0SO-2hR-27" style="edgeStyle=orthogonalEdgeStyle;rounded=0;orthogonalLoop=1;jettySize=auto;html=1;exitX=0.5;exitY=1;exitDx=0;exitDy=0;" edge="1" parent="1" source="D9bvN3J_-7FyO0SO-2hR-22" target="D9bvN3J_-7FyO0SO-2hR-2">
          <mxGeometry relative="1" as="geometry" />
        </mxCell>
        <mxCell id="D9bvN3J_-7FyO0SO-2hR-22" value="OUTPUT c" style="shape=parallelogram;perimeter=parallelogramPerimeter;whiteSpace=wrap;html=1;fixedSize=1;" vertex="1" parent="1">
          <mxGeometry x="85" y="480" width="120" height="55" as="geometry" />
        </mxCell>
      </root>
    </mxGraphModel>
  </diagram>
</mxfile>
